<svg width="157" height="47" viewBox="0 0 157 47" fill="none" xmlns="http://www.w3.org/2000/svg">
<path fill-rule="evenodd" clip-rule="evenodd" d="M0 7.33503C0 3.28401 3.284 0 7.33503 0H148.715C152.767 0 156.051 3.284 156.051 7.33503V39.665C156.051 43.716 152.767 47 148.715 47H7.33503C3.28401 47 0 43.716 0 39.665V7.33503Z" fill="black"/>
<path d="M50.8252 15V7.89062H52.832C53.4505 7.89062 53.9974 8.02734 54.4727 8.30078C54.9479 8.57422 55.3141 8.96322 55.5713 9.46777C55.8317 9.97233 55.9635 10.5518 55.9668 11.2061V11.6602C55.9668 12.3307 55.8366 12.9183 55.5762 13.4229C55.319 13.9274 54.9495 14.3148 54.4678 14.585C53.9893 14.8551 53.431 14.9935 52.793 15H50.8252ZM51.7627 8.66211V14.2334H52.749C53.4717 14.2334 54.0332 14.0088 54.4336 13.5596C54.8372 13.1104 55.0391 12.4707 55.0391 11.6406V11.2256C55.0391 10.4183 54.8486 9.79167 54.4678 9.3457C54.0902 8.89648 53.5531 8.66862 52.8564 8.66211H51.7627ZM57.0068 12.3096C57.0068 11.792 57.1077 11.3265 57.3096 10.9131C57.5146 10.4997 57.7979 10.1807 58.1592 9.95605C58.5238 9.73145 58.9388 9.61914 59.4043 9.61914C60.1237 9.61914 60.7048 9.86816 61.1475 10.3662C61.5934 10.8643 61.8164 11.5267 61.8164 12.3535V12.417C61.8164 12.9313 61.7171 13.3936 61.5186 13.8037C61.3232 14.2106 61.0417 14.528 60.6738 14.7559C60.3092 14.9837 59.8893 15.0977 59.4141 15.0977C58.6979 15.0977 58.1169 14.8486 57.6709 14.3506C57.2282 13.8525 57.0068 13.1934 57.0068 12.373V12.3096ZM57.915 12.417C57.915 13.0029 58.0501 13.4733 58.3203 13.8281C58.5938 14.1829 58.9583 14.3604 59.4141 14.3604C59.873 14.3604 60.2376 14.1813 60.5078 13.8232C60.778 13.4619 60.9131 12.9574 60.9131 12.3096C60.9131 11.7301 60.7747 11.2614 60.498 10.9033C60.2246 10.542 59.86 10.3613 59.4043 10.3613C58.9583 10.3613 58.5986 10.5387 58.3252 10.8936C58.0518 11.2484 57.915 11.7562 57.915 12.417ZM67.627 13.7549L68.6426 9.7168H69.5459L68.0078 15H67.2754L65.9912 10.9961L64.7412 15H64.0088L62.4756 9.7168H63.374L64.4141 13.6719L65.6445 9.7168H66.3721L67.627 13.7549ZM71.3232 9.7168L71.3525 10.3809C71.7562 9.87305 72.2835 9.61914 72.9346 9.61914C74.0511 9.61914 74.6143 10.249 74.624 11.5088V15H73.7207V11.5039C73.7174 11.123 73.6296 10.8415 73.457 10.6592C73.2878 10.4769 73.0225 10.3857 72.6611 10.3857C72.3682 10.3857 72.111 10.4639 71.8896 10.6201C71.6683 10.7764 71.4958 10.9814 71.3721 11.2354V15H70.4688V9.7168H71.3232ZM76.9678 15H76.0645V7.5H76.9678V15ZM78.1787 12.3096C78.1787 11.792 78.2796 11.3265 78.4814 10.9131C78.6865 10.4997 78.9697 10.1807 79.3311 9.95605C79.6956 9.73145 80.1107 9.61914 80.5762 9.61914C81.2956 9.61914 81.8766 9.86816 82.3193 10.3662C82.7653 10.8643 82.9883 11.5267 82.9883 12.3535V12.417C82.9883 12.9313 82.889 13.3936 82.6904 13.8037C82.4951 14.2106 82.2135 14.528 81.8457 14.7559C81.4811 14.9837 81.0612 15.0977 80.5859 15.0977C79.8698 15.0977 79.2887 14.8486 78.8428 14.3506C78.4001 13.8525 78.1787 13.1934 78.1787 12.373V12.3096ZM79.0869 12.417C79.0869 13.0029 79.222 13.4733 79.4922 13.8281C79.7656 14.1829 80.1302 14.3604 80.5859 14.3604C81.0449 14.3604 81.4095 14.1813 81.6797 13.8232C81.9499 13.4619 82.085 12.9574 82.085 12.3096C82.085 11.7301 81.9466 11.2614 81.6699 10.9033C81.3965 10.542 81.0319 10.3613 80.5762 10.3613C80.1302 10.3613 79.7705 10.5387 79.4971 10.8936C79.2236 11.2484 79.0869 11.7562 79.0869 12.417ZM87.3828 15C87.3307 14.8958 87.2884 14.7103 87.2559 14.4434C86.8359 14.8796 86.3346 15.0977 85.752 15.0977C85.2311 15.0977 84.8031 14.9512 84.4678 14.6582C84.1357 14.362 83.9697 13.9876 83.9697 13.5352C83.9697 12.985 84.1781 12.5586 84.5947 12.2559C85.0146 11.9499 85.6038 11.7969 86.3623 11.7969H87.2412V11.3818C87.2412 11.0661 87.1468 10.8154 86.958 10.6299C86.7692 10.4411 86.4909 10.3467 86.123 10.3467C85.8008 10.3467 85.5306 10.4281 85.3125 10.5908C85.0944 10.7536 84.9854 10.9505 84.9854 11.1816H84.0771C84.0771 10.918 84.1699 10.6641 84.3555 10.4199C84.5443 10.1725 84.7982 9.97721 85.1172 9.83398C85.4395 9.69076 85.7926 9.61914 86.1768 9.61914C86.7855 9.61914 87.2624 9.77214 87.6074 10.0781C87.9525 10.3809 88.1315 10.7992 88.1445 11.333V13.7646C88.1445 14.2497 88.2064 14.6354 88.3301 14.9219V15H87.3828ZM85.8838 14.3115C86.167 14.3115 86.4355 14.2383 86.6895 14.0918C86.9434 13.9453 87.1273 13.7549 87.2412 13.5205V12.4365H86.5332C85.4264 12.4365 84.873 12.7604 84.873 13.4082C84.873 13.6914 84.9674 13.9128 85.1562 14.0723C85.3451 14.2318 85.5876 14.3115 85.8838 14.3115ZM89.3408 12.3145C89.3408 11.5039 89.5329 10.8529 89.917 10.3613C90.3011 9.86654 90.804 9.61914 91.4258 9.61914C92.0443 9.61914 92.5342 9.83073 92.8955 10.2539V7.5H93.7988V15H92.9688L92.9248 14.4336C92.5635 14.8763 92.0605 15.0977 91.416 15.0977C90.804 15.0977 90.3044 14.847 89.917 14.3457C89.5329 13.8444 89.3408 13.1901 89.3408 12.3828V12.3145ZM90.2441 12.417C90.2441 13.016 90.3678 13.4847 90.6152 13.8232C90.8626 14.1618 91.2044 14.3311 91.6406 14.3311C92.2135 14.3311 92.6318 14.0739 92.8955 13.5596V11.1328C92.6253 10.6348 92.2103 10.3857 91.6504 10.3857C91.2077 10.3857 90.8626 10.5566 90.6152 10.8984C90.3678 11.2402 90.2441 11.7464 90.2441 12.417ZM97.4463 12.3096C97.4463 11.792 97.5472 11.3265 97.749 10.9131C97.9541 10.4997 98.2373 10.1807 98.5986 9.95605C98.9632 9.73145 99.3783 9.61914 99.8438 9.61914C100.563 9.61914 101.144 9.86816 101.587 10.3662C102.033 10.8643 102.256 11.5267 102.256 12.3535V12.417C102.256 12.9313 102.157 13.3936 101.958 13.8037C101.763 14.2106 101.481 14.528 101.113 14.7559C100.749 14.9837 100.329 15.0977 99.8535 15.0977C99.1374 15.0977 98.5563 14.8486 98.1104 14.3506C97.6676 13.8525 97.4463 13.1934 97.4463 12.373V12.3096ZM98.3545 12.417C98.3545 13.0029 98.4896 13.4733 98.7598 13.8281C99.0332 14.1829 99.3978 14.3604 99.8535 14.3604C100.312 14.3604 100.677 14.1813 100.947 13.8232C101.217 13.4619 101.353 12.9574 101.353 12.3096C101.353 11.7301 101.214 11.2614 100.938 10.9033C100.664 10.542 100.299 10.3613 99.8438 10.3613C99.3978 10.3613 99.0381 10.5387 98.7646 10.8936C98.4912 11.2484 98.3545 11.7562 98.3545 12.417ZM104.243 9.7168L104.272 10.3809C104.676 9.87305 105.203 9.61914 105.854 9.61914C106.971 9.61914 107.534 10.249 107.544 11.5088V15H106.641V11.5039C106.637 11.123 106.549 10.8415 106.377 10.6592C106.208 10.4769 105.942 10.3857 105.581 10.3857C105.288 10.3857 105.031 10.4639 104.81 10.6201C104.588 10.7764 104.416 10.9814 104.292 11.2354V15H103.389V9.7168H104.243ZM112.612 8.4375V9.7168H113.599V10.415H112.612V13.6914C112.612 13.903 112.656 14.0625 112.744 14.1699C112.832 14.2741 112.982 14.3262 113.193 14.3262C113.298 14.3262 113.441 14.3066 113.623 14.2676V15C113.385 15.0651 113.154 15.0977 112.93 15.0977C112.526 15.0977 112.222 14.9756 112.017 14.7314C111.812 14.4873 111.709 14.1406 111.709 13.6914V10.415H110.747V9.7168H111.709V8.4375H112.612ZM115.562 10.3564C115.962 9.86491 116.483 9.61914 117.124 9.61914C118.241 9.61914 118.804 10.249 118.813 11.5088V15H117.91V11.5039C117.907 11.123 117.819 10.8415 117.646 10.6592C117.477 10.4769 117.212 10.3857 116.851 10.3857C116.558 10.3857 116.3 10.4639 116.079 10.6201C115.858 10.7764 115.685 10.9814 115.562 11.2354V15H114.658V7.5H115.562V10.3564ZM122.358 15.0977C121.642 15.0977 121.06 14.8633 120.61 14.3945C120.161 13.9225 119.937 13.2926 119.937 12.5049V12.3389C119.937 11.8148 120.036 11.3477 120.234 10.9375C120.436 10.5241 120.716 10.2018 121.074 9.9707C121.436 9.73633 121.826 9.61914 122.246 9.61914C122.933 9.61914 123.467 9.84538 123.848 10.2979C124.229 10.7503 124.419 11.3981 124.419 12.2412V12.6172H120.84C120.853 13.138 121.004 13.5596 121.294 13.8818C121.587 14.2008 121.958 14.3604 122.407 14.3604C122.726 14.3604 122.996 14.2952 123.218 14.165C123.439 14.0348 123.633 13.8623 123.799 13.6475L124.351 14.0771C123.908 14.7575 123.244 15.0977 122.358 15.0977ZM122.246 10.3613C121.882 10.3613 121.576 10.4948 121.328 10.7617C121.081 11.0254 120.928 11.3965 120.869 11.875H123.516V11.8066C123.49 11.3477 123.366 10.9928 123.145 10.7422C122.923 10.4883 122.624 10.3613 122.246 10.3613Z" fill="white"/>
<path d="M60.0018 34.104H54.1439L52.9182 37.625H50.1866L55.8992 22.5022H58.2569L63.9799 37.625H61.2378L60.0018 34.104ZM54.8813 31.9851H59.2644L57.0729 25.7117L54.8813 31.9851ZM74.8026 32.1201C74.8026 33.8582 74.4079 35.2465 73.6186 36.2851C72.8292 37.3169 71.7698 37.8327 70.4403 37.8327C69.2078 37.8327 68.221 37.4277 67.4801 36.6175V41.9458H64.9562V26.3868H67.2828L67.3867 27.5293C68.1276 26.6291 69.1351 26.1791 70.4091 26.1791C71.7802 26.1791 72.8534 26.6915 73.629 27.7163C74.4114 28.7341 74.8026 30.1502 74.8026 31.9643V32.1201ZM72.2891 31.902C72.2891 30.7803 72.0641 29.8905 71.614 29.2327C71.1708 28.5749 70.5338 28.246 69.7029 28.246C68.6711 28.246 67.9302 28.6718 67.4801 29.5235V34.509C67.9371 35.3815 68.685 35.8177 69.7236 35.8177C70.5268 35.8177 71.1535 35.4958 71.6036 34.8518C72.0606 34.2009 72.2891 33.2177 72.2891 31.902ZM86.7887 32.1201C86.7887 33.8582 86.394 35.2465 85.6046 36.2851C84.8152 37.3169 83.7558 37.8327 82.4263 37.8327C81.1938 37.8327 80.2071 37.4277 79.4662 36.6175V41.9458H76.9423V26.3868H79.2688L79.3727 27.5293C80.1136 26.6291 81.1211 26.1791 82.3952 26.1791C83.7662 26.1791 84.8395 26.6915 85.615 27.7163C86.3974 28.7341 86.7887 30.1502 86.7887 31.9643V32.1201ZM84.2751 31.902C84.2751 30.7803 84.0501 29.8905 83.6 29.2327C83.1568 28.5749 82.5198 28.246 81.6889 28.246C80.6572 28.246 79.9163 28.6718 79.4662 29.5235V34.509C79.9232 35.3815 80.671 35.8177 81.7097 35.8177C82.5129 35.8177 83.1395 35.4958 83.5896 34.8518C84.0466 34.2009 84.2751 33.2177 84.2751 31.902ZM102.379 33.7301C102.379 33.0653 102.143 32.5529 101.673 32.1929C101.209 31.8328 100.367 31.4693 99.1486 31.1023C97.9299 30.7353 96.9605 30.3267 96.2404 29.8767C94.8625 29.0111 94.1735 27.8824 94.1735 26.4907C94.1735 25.272 94.6686 24.2679 95.6588 23.4786C96.6559 22.6892 97.9472 22.2945 99.5329 22.2945C100.585 22.2945 101.524 22.4884 102.348 22.8761C103.172 23.2639 103.819 23.8179 104.29 24.538C104.761 25.2512 104.996 26.044 104.996 26.9165H102.379C102.379 26.1271 102.13 25.5109 101.631 25.0677C101.139 24.6176 100.433 24.3926 99.5121 24.3926C98.6535 24.3926 97.9853 24.5761 97.5076 24.9431C97.0367 25.3101 96.8013 25.8225 96.8013 26.4803C96.8013 27.0342 97.0575 27.4981 97.5699 27.8721C98.0823 28.2391 98.927 28.5991 100.104 28.9523C101.281 29.2985 102.226 29.6966 102.94 30.1467C103.653 30.5899 104.176 31.1023 104.508 31.6839C104.84 32.2586 105.007 32.9338 105.007 33.7093C105.007 34.9695 104.522 35.9735 103.553 36.7214C102.59 37.4623 101.281 37.8327 99.6264 37.8327C98.5324 37.8327 97.5249 37.6319 96.6039 37.2303C95.6899 36.8218 94.9767 36.2609 94.4643 35.5477C93.9588 34.8345 93.7061 34.0036 93.7061 33.0549H96.3339C96.3339 33.9136 96.6178 34.5783 97.1856 35.0491C97.7534 35.52 98.567 35.7554 99.6264 35.7554C100.54 35.7554 101.226 35.5719 101.683 35.2049C102.147 34.831 102.379 34.3394 102.379 33.7301ZM110.231 23.6551V26.3868H112.215V28.2564H110.231V34.5298C110.231 34.9591 110.314 35.2707 110.48 35.4646C110.653 35.6516 110.958 35.745 111.394 35.745C111.685 35.745 111.979 35.7104 112.277 35.6412V37.5938C111.702 37.7531 111.149 37.8327 110.615 37.8327C108.677 37.8327 107.707 36.7629 107.707 34.6233V28.2564H105.858V26.3868H107.707V23.6551H110.231ZM113.368 31.902C113.368 30.8011 113.586 29.8109 114.022 28.9315C114.458 28.0452 115.071 27.3666 115.861 26.8957C116.65 26.418 117.557 26.1791 118.582 26.1791C120.098 26.1791 121.327 26.6672 122.269 27.6436C123.218 28.6199 123.73 29.9147 123.806 31.5281L123.817 32.1201C123.817 33.228 123.602 34.2182 123.173 35.0907C122.75 35.9632 122.141 36.6383 121.345 37.1161C120.555 37.5938 119.641 37.8327 118.603 37.8327C117.017 37.8327 115.746 37.3065 114.791 36.254C113.842 35.1946 113.368 33.7855 113.368 32.0267V31.902ZM115.892 32.1201C115.892 33.2765 116.131 34.1836 116.608 34.8414C117.086 35.4923 117.751 35.8177 118.603 35.8177C119.454 35.8177 120.116 35.4854 120.586 34.8206C121.064 34.1559 121.303 33.183 121.303 31.902C121.303 30.7664 121.057 29.8663 120.566 29.2015C120.081 28.5368 119.42 28.2044 118.582 28.2044C117.758 28.2044 117.103 28.5333 116.619 29.1912C116.134 29.842 115.892 30.8184 115.892 32.1201ZM131.835 28.6926C131.503 28.6372 131.16 28.6095 130.807 28.6095C129.65 28.6095 128.871 29.0527 128.47 29.939V37.625H125.946V26.3868H128.355L128.418 27.6436C129.027 26.6672 129.872 26.1791 130.952 26.1791C131.312 26.1791 131.61 26.2275 131.845 26.3245L131.835 28.6926ZM138.171 37.8327C136.571 37.8327 135.273 37.3307 134.276 36.3267C133.286 35.3157 132.791 33.9724 132.791 32.2967V31.9851C132.791 30.8634 133.005 29.8628 133.435 28.9834C133.871 28.0971 134.48 27.4081 135.263 26.9165C136.045 26.4249 136.917 26.1791 137.88 26.1791C139.41 26.1791 140.591 26.6672 141.422 27.6436C142.26 28.6199 142.679 30.0013 142.679 31.7878V32.8057H135.335C135.411 33.7335 135.72 34.4675 136.26 35.0076C136.807 35.5477 137.492 35.8177 138.316 35.8177C139.473 35.8177 140.414 35.3504 141.141 34.4156L142.502 35.7139C142.052 36.3855 141.449 36.9083 140.695 37.2822C139.947 37.6492 139.106 37.8327 138.171 37.8327ZM137.87 28.2044C137.177 28.2044 136.616 28.4468 136.187 28.9315C135.765 29.4162 135.494 30.0913 135.377 30.9569H140.186V30.7699C140.13 29.9251 139.905 29.2881 139.511 28.8588C139.116 28.4225 138.569 28.2044 137.87 28.2044Z" fill="white"/>
<path fill-rule="evenodd" clip-rule="evenodd" d="M31.006 8.07812C29.4564 8.14307 27.5788 9.10966 26.4675 10.4092C25.4685 11.5633 24.5965 13.4051 24.8316 15.1712C26.5617 15.3064 28.3246 14.2936 29.4015 12.9934C30.4763 11.6908 31.204 9.88324 31.006 8.07812ZM30.5678 38.813C32.6674 38.7739 33.9973 36.9093 35.2829 35.0332C36.6915 32.9782 37.3136 30.9857 37.4063 30.6886C37.4115 30.672 37.415 30.6608 37.4169 30.655C37.416 30.6546 37.4134 30.6535 37.4092 30.6518C37.2072 30.5698 33.321 28.9921 33.2824 24.4316C33.2444 20.6656 36.2522 18.7921 36.5833 18.5859C36.5948 18.5787 36.6031 18.5735 36.6079 18.5704C34.7975 15.9268 31.9786 15.5643 30.9741 15.5229C29.507 15.3747 28.0836 15.9347 26.9206 16.3923C26.1816 16.683 25.5477 16.9324 25.0745 16.9324C24.5479 16.9324 23.8967 16.6743 23.1658 16.3847C22.2092 16.0056 21.1161 15.5724 19.9877 15.5932C17.374 15.6322 14.9621 17.1121 13.616 19.451C10.8979 24.1607 12.919 31.1394 15.567 34.9581C16.8632 36.8258 18.4045 38.9278 20.4314 38.8521C21.3365 38.8158 21.9805 38.542 22.6467 38.2587C23.4165 37.9314 24.2157 37.5916 25.4812 37.5916C26.6864 37.5916 27.4486 37.9209 28.1818 38.2377C28.883 38.5406 29.5577 38.8321 30.5678 38.813Z" fill="white"/>
</svg>
