<svg width="48" height="48" viewBox="0 0 48 48" fill="none" xmlns="http://www.w3.org/2000/svg">
<path d="M48 24C48 37.255 37.255 48 24 48C10.745 48 0 37.255 0 24C0 10.745 10.745 0 24 0C37.255 0 48 10.745 48 24Z" fill="url(#paint0_linear)"/>
<path d="M29.2244 35.536H10.0463C8.17712 35.536 6.65625 33.9965 6.65625 32.1039V15.8961C6.65625 14.0035 8.17712 12.464 10.0463 12.464H29.2244C31.0935 12.464 32.6144 14.0039 32.6144 15.8961V18.2267L39.4889 15.9141C39.9185 15.7698 40.3905 15.8408 40.7582 16.1049C41.1259 16.3689 41.3438 16.7941 41.3438 17.2467V30.7533C41.3438 31.2059 41.1259 31.6307 40.7582 31.8951C40.3901 32.1592 39.9177 32.2302 39.4889 32.0859L32.6144 29.7733V32.1039C32.6144 33.9965 31.0935 35.536 29.2244 35.536ZM10.0463 15.2765C9.72803 15.2765 9.46875 15.5544 9.46875 15.8961V32.1039C9.46875 32.4456 9.72803 32.7235 10.0463 32.7235H29.2244C29.5426 32.7235 29.8019 32.4456 29.8019 32.1039V27.8163C29.8019 27.3636 30.0198 26.9388 30.3875 26.6744C30.7551 26.41 31.2275 26.339 31.6567 26.4836L38.5312 28.7963V19.2037L31.6567 21.5164C31.2275 21.661 30.7551 21.59 30.3875 21.3256C30.0201 21.0615 29.8019 20.6364 29.8019 20.1837V15.8961C29.8019 15.5544 29.543 15.2765 29.2244 15.2765H10.0463Z" fill="white"/>
<defs>
<linearGradient id="paint0_linear" x1="0" y1="24" x2="48" y2="24" gradientUnits="userSpaceOnUse">
<stop stop-color="#6FCF97"/>
<stop offset="1" stop-color="#27AE60"/>
</linearGradient>
</defs>
</svg>
