<svg width="15" height="13" viewBox="0 0 15 13" fill="none" xmlns="http://www.w3.org/2000/svg">
<path d="M5.81979 12.0229C5.38197 12.0229 5.45636 11.8648 5.30536 11.4661L4.01788 7.41317L13.9283 1.78955" fill="#9399AB"/>
<path d="M5.8197 12.023C6.15756 12.023 6.30684 11.8752 6.49542 11.6999L8.29732 10.0239L6.04967 8.72754" fill="#70788E"/>
<path d="M6.04945 8.72785L11.4957 12.5766C12.1172 12.9046 12.5657 12.7348 12.7205 12.0247L14.9374 2.03225C15.1644 1.16185 14.5906 0.767076 13.996 1.02526L0.978404 5.82645C0.0898302 6.16735 0.0950105 6.64152 0.816436 6.8528L4.15705 7.8501L11.8909 3.18314C12.256 2.97137 12.5911 3.08522 12.3161 3.31869" fill="#B6BAC7"/>
</svg>
