<svg width="18" height="14" viewBox="0 0 18 14" fill="none" xmlns="http://www.w3.org/2000/svg">
<path fill-rule="evenodd" clip-rule="evenodd" d="M17.0328 1.84025C16.4252 2.11745 15.7726 2.30402 15.0877 2.38882C15.7868 1.95792 16.3239 1.27579 16.5767 0.463268C15.9222 0.862106 15.1973 1.15176 14.4257 1.30785C13.8081 0.631814 12.9275 0.210449 11.9534 0.210449C10.0831 0.210449 8.56628 1.7687 8.56628 3.69002C8.56628 3.96298 8.59595 4.22852 8.65399 4.48319C5.8385 4.33743 3.34237 2.95144 1.67201 0.847266C1.3805 1.36138 1.21347 1.95871 1.21347 2.59633C1.21347 3.80344 1.81144 4.86838 2.72002 5.49287C2.16538 5.47432 1.64273 5.31797 1.18612 5.05693V5.10066C1.18612 6.78744 2.35473 8.19332 3.90255 8.51332C3.61879 8.59282 3.31954 8.63522 3.01178 8.63522C2.79354 8.63522 2.58097 8.61402 2.37459 8.57294C2.8054 9.95576 4.05656 10.9617 5.5386 10.9898C4.37928 11.9227 2.91865 12.4792 1.3311 12.4792C1.05765 12.4792 0.788587 12.4633 0.523651 12.4307C2.02246 13.4181 3.80323 13.9942 5.71596 13.9942C11.946 13.9942 15.3531 8.6914 15.3531 4.09349C15.3531 3.94244 15.3498 3.79271 15.3433 3.64298C16.0053 3.15271 16.5798 2.53922 17.0338 1.84092" fill="#B6BAC7"/>
</svg>
